<!-- shapes.svg -->
<svg width="1440" height="810" viewBox="0 0 1440 810" fill="none" xmlns="http://www.w3.org/2000/svg">
  <!-- Your SVG code with curves here -->
  <defs>
    <clipPath id="myClip">
      <path d="M1315.17 305.902C1331.83 189.307 1179.11 81.3816 1013.51 -0.000854492H1175.05C1235.49 41.5716 1290 88.6567 1318.69 136.859C1369.86 222.824 1355.61 304.027 1282.15 394.994C1299.13 366.779 1310.7 337.184 1315.17 305.902Z" />
      <path d="M984.875 648.712C915.23 702.937 858.815 756.299 815.885 809.999H766.355C820.603 755.339 901.588 703.033 984.875 648.712Z" />
      <path d="M1440 -0.000854492V809.999H815.887C858.817 756.299 915.232 702.937 984.877 648.712C1102.12 572.227 1223.94 491.737 1282.15 394.994C1355.61 304.027 1369.86 222.824 1318.69 136.859C1290 88.6567 1235.49 41.5716 1175.05 -0.000854492H1440Z" />
      <path d="M1282.15 394.994C1223.94 491.737 1102.12 572.227 984.877 648.712C1000.4 636.622 1016.59 624.487 1033.43 612.299C1145.53 531.172 1229.22 460.544 1282.15 394.994Z" />
      <path d="M1254.86 -24.7996C1275.87 1.57644 1307.21 53.0047 1318.69 80.9444C1476.74 465.478 924.978 604.487 887.553 846.151" />
    </clipPath>
  </defs>
</svg>
