<svg xmlns="http://www.w3.org/2000/svg" width="46.86" height="46.89" viewBox="0 0 46.86 46.89">
  <g id="Group_1" data-name="Group 1" transform="translate(0 0)">
    <path id="Path_105" data-name="Path 105" d="M22.63,22.77s.4-8.35-2.09-13.25c0,0-2.14,4.54-2.41,4.48S16.99,8,19.39,0H0V21.55C5.47,22.84,14.63,24.24,22.63,22.77Z" fill="#fff"/>
    <path id="Path_106" data-name="Path 106" d="M21.13,34.12c-.32-.24,1.44-7.71,1.3-8.11s-5.86-.25-10-1.16c0,0,2.82,2.09,2.16,2.08S6.4,27.46.01,24.26V46.89H20.93c.91-4,2.45-11.11,2.46-14.35,0,0-2.09,1.71-2.26,1.59" fill="#fff"/>
    <path id="Path_107" data-name="Path 107" d="M21.33.04c-.31,3-.4,6,.21,7.85.89-1.21,1.86-2.87,2.24-2.7s1.46,4.09,2.17,8.18a79.173,79.173,0,0,1,.77,8.24c.38.09,3.73-2.52,4.09-2.56s0,1.93-1.4,3.49a33.9,33.9,0,0,1,17.44-3.06V.04Z" fill="#fff"/>
    <path id="Path_108" data-name="Path 108" d="M34.33,25.611s-7.88.45-8,.6-.27,2.1-1.06,5c0,0,2.29-2.69,2.62-2.63s-1.91,11.74-5.6,18.3H46.86V21.361C41.53,22.071,34.86,23.361,34.33,25.611Z" fill="#fff"/>
  </g>
</svg>
