<svg xmlns="http://www.w3.org/2000/svg" xmlns:xlink="http://www.w3.org/1999/xlink" width="153.01" height="52.58" viewBox="0 0 153.01 52.58">
  <defs>
    <clipPath id="clip-path">
      <rect id="Rectangle_13" data-name="Rectangle 13" width="153.01" height="52.58" transform="translate(0 0)" fill="#fff"/>
    </clipPath>
  </defs>
  <g id="logo" transform="translate(0 0)" clip-path="url(#clip-path)">
    <path id="Path_73" data-name="Path 73" d="M112.24,31.67c-4,.1-6,1.39-6,5.41v9.86h3.77V37.12c0-1.88.71-2.16,2.17-2.22.93-.06,1.25.12,2.09-.34s1.06-1.44,1.06-2.76a29.105,29.105,0,0,0-3.08-.13" fill="#fff"/>
    <path id="Path_74" data-name="Path 74" d="M72.33,43.62H62.44V38h6.3c2,0,3.06-1.15,2.78-3.31H62.44V29.6h7.1c2,0,3.06-1.14,2.78-3.3H58.55V46.92H72.33Z" fill="#fff"/>
    <path id="Path_75" data-name="Path 75" d="M98.16,34.75c2,0,2.77.72,2.77,1.92s-.18,1.85-2.5,1.85a24.461,24.461,0,0,1-4-.24c.2-2.94,1.31-3.53,3.74-3.53Zm.34,9.36c-2.59,0-3.69-.66-4-3a28.569,28.569,0,0,0,4.38.2c4.26-.06,5.58-1.57,5.58-4.75,0-3-1.88-4.91-6.17-4.91-5,0-7.72,2.22-7.72,7.78,0,5.92,2.62,7.78,7.63,7.78a28.99,28.99,0,0,0,5.27-.53l-.18-3a31.3,31.3,0,0,1-4.79.46Z" fill="#fff"/>
    <path id="Path_76" data-name="Path 76" d="M81.49,34.91c2.53,0,3.36.55,3.36,2.56v9.45h3.77V37.41c0-4.35-2.29-5.74-7.13-5.74-4.54,0-7.13,1.39-7.13,5.74v9.51h3.76V37.47C78.12,35.47,78.96,34.91,81.49,34.91Z" fill="#fff"/>
    <path id="Path_77" data-name="Path 77" d="M121.64,43.38c-1.76,0-2.34-1.08-2.34-4.14,0-3.52.95-4.57,3.21-4.57a19.574,19.574,0,0,1,3.28.28v7.53a12.131,12.131,0,0,1-4.14.9Zm.94-11.83c-5.06,0-7.1,1.92-7.1,7.88,0,5.15,1.6,7.37,5.09,7.37a15,15,0,0,0,5.22-1.26V46.9c0,2.06-1.36,2.34-2.87,2.4a37.887,37.887,0,0,1-5.06-.24l-.25,3a44.427,44.427,0,0,0,5.19.31c4.44-.09,6.79-1.39,6.79-5.4V32.42a36.8,36.8,0,0,0-7-.87Z" fill="#fff"/>
    <path id="Path_78" data-name="Path 78" d="M145.72,31.74h-3.77v10.18a15.125,15.125,0,0,1-4.72,1.3,1.57,1.57,0,0,1-1.67-1.7V31.58c-1.85-.21-3.76.31-3.76,2.38v7.69c0,3.27,1.14,5,4.23,5a16.306,16.306,0,0,0,5.92-1.67v2c0,2.07-1.48,2.34-3.09,2.41a40.606,40.606,0,0,1-5.21-.25l-.32,3.13a50.16,50.16,0,0,0,5.37.31c4.63-.1,7.07-1.39,7.07-5.41Z" fill="#fff"/>
    <path id="Path_79" data-name="Path 79" d="M66.33,17.211H62.44V3.441h3.89c4.32,0,5.34,1.3,5.34,7s-1,6.82-5.34,6.82Zm0,3.48c6.92,0,9.36-3.15,9.36-10.25,0-7.75-2.44-10.37-9.36-10.37H58.55v20.57Z" fill="#fff"/>
    <path id="Path_80" data-name="Path 80" d="M77.81,4.251h3.77V.541c-1.85-.22-3.77.31-3.77,2.38Z" fill="#fff"/>
    <path id="Path_81" data-name="Path 81" d="M77.78,20.65V5.58h3.8V20.65Z" fill="#fff"/>
    <path id="Path_82" data-name="Path 82" d="M119.84,17.58a32.3,32.3,0,0,1-3.55.25c-3.24,0-4-1-4-4.82s.9-4.38,3-4.38c.71,0,1.75.09,2.28.12,1.76.09,2.53-1.08,2.44-2.93a28,28,0,0,0-4.6-.43c-4.94,0-7,1.94-7,7.62,0,6.08,2.26,7.94,7.35,7.94a34.806,34.806,0,0,0,4.17-.31Z" fill="#fff"/>
    <path id="Path_83" data-name="Path 83" d="M128.24,8.57h2.69c2,0,2.71-.9,2.53-3h-5.22v-5c-1.85-.22-3.76.31-3.76,2.38V5.6h-2.81v3h2.81v6.82c0,3.76,1.54,5.4,5.46,5.4a24.931,24.931,0,0,0,3.18-.21l-.09-3c-.72.06-1.76.12-2.63.12-1.45,0-2.16-.49-2.16-2.1Z" fill="#fff"/>
    <path id="Path_84" data-name="Path 84" d="M100.68,8.47c2,0,2.78.71,2.78,1.92s-.19,1.85-2.5,1.85a24.335,24.335,0,0,1-4-.24c.19-2.94,1.3-3.53,3.73-3.53Zm.35,9.36c-2.6,0-3.69-.66-4-3a27.284,27.284,0,0,0,4.38.21c4.26-.06,5.58-1.58,5.58-4.75,0-3-1.88-4.91-6.17-4.91-5,0-7.71,2.22-7.71,7.78,0,5.92,2.62,7.78,7.62,7.78a29.131,29.131,0,0,0,5.28-.53l-.19-3.06a29.8,29.8,0,0,1-4.78.47Z" fill="#fff"/>
    <path id="Path_85" data-name="Path 85" d="M89.86,5.39c-4,.09-6,1.39-6,5.41v9.86h3.77V10.8c0-1.88.71-2.16,2.16-2.22.93-.07,1.26.12,2.09-.35s1.08-1.35,1-2.71a29,29,0,0,0-3.08-.13" fill="#fff"/>
    <path id="Path_86" data-name="Path 86" d="M151.01,43.12a2,2,0,1,1-2,2,1.91,1.91,0,0,1,2-2Zm0,3.55a1.56,1.56,0,1,0-1.53-1.55,1.45,1.45,0,0,0,1.53,1.56Zm.06-1.28h-.37V46h-.31V44.12h.72c.41,0,.57.18.57.49v.25a.43.43,0,0,1-.26.43l.48.67h-.37Zm0-.94h-.4v.67h.4c.2,0,.26-.08.26-.21v-.22c0-.17-.08-.22-.26-.22Z" fill="#fff"/>
    <path id="Path_87" data-name="Path 87" d="M22.63,22.77s.4-8.35-2.09-13.25c0,0-2.14,4.54-2.41,4.48S16.99,8,19.39,0H0V21.55C5.47,22.84,14.63,24.24,22.63,22.77Z" fill="#fff"/>
    <path id="Path_88" data-name="Path 88" d="M21.13,34.12c-.32-.24,1.44-7.71,1.3-8.11s-5.86-.25-10-1.16c0,0,2.82,2.09,2.16,2.08S6.4,27.46.01,24.26V46.89H20.93c.91-4,2.45-11.11,2.46-14.35,0,0-2.09,1.71-2.26,1.59" fill="#fff"/>
    <path id="Path_89" data-name="Path 89" d="M21.33.04c-.31,3-.4,6,.21,7.85.89-1.21,1.86-2.87,2.24-2.7s1.46,4.09,2.17,8.18a79.173,79.173,0,0,1,.77,8.24c.38.09,3.73-2.52,4.09-2.56s0,1.93-1.4,3.49a33.9,33.9,0,0,1,17.44-3.06V.04Z" fill="#fff"/>
    <path id="Path_90" data-name="Path 90" d="M34.33,25.611s-7.88.45-8,.6-.27,2.1-1.06,5c0,0,2.29-2.69,2.62-2.63s-1.91,11.74-5.6,18.3H46.86V21.361C41.53,22.071,34.86,23.361,34.33,25.611Z" fill="#fff"/>
  </g>
</svg>
