<svg xmlns="http://www.w3.org/2000/svg" xmlns:xlink="http://www.w3.org/1999/xlink" width="419.117" height="332.681" viewBox="0 0 419.117 332.681">
  <defs>
    <linearGradient id="linear-gradient" x1="-2" y1="0.315" x2="3.835" y2="0.737" gradientUnits="objectBoundingBox">
      <stop offset="0.01"/>
      <stop offset="0.13" stop-opacity="0.69"/>
      <stop offset="0.25" stop-opacity="0.322"/>
      <stop offset="1" stop-opacity="0"/>
    </linearGradient>
  </defs>
  <g id="drafting-illustration" transform="translate(-0.068 -0.414)">
    <path id="Path_19" data-name="Path 19" d="M320,18.882s95.345,42.355,98.627,101.331-174.708,48.34-213.63,73.773S-2.619,258.065.633,213.764,43.96,154.181,43.96,154.181" transform="translate(0 7.601)" fill="none" stroke="#444343" stroke-miterlimit="10" stroke-width="1.033"/>
    <path id="Path_20" data-name="Path 20" d="M50.267,201.577,108.453,46.315a13.277,13.277,0,0,1,12.428-8.6H365.9a13.277,13.277,0,0,1,13.248,13.278,13.638,13.638,0,0,1-.607,3.98L322.234,231.2a13.217,13.217,0,0,1-13.733,9.115L61.54,219.352a13.277,13.277,0,0,1-12.154-14.311A13.778,13.778,0,0,1,50.267,201.577Z" transform="translate(20.067 15.353)" fill="#ff5100" opacity="0.18"/>
    <path id="Path_21" data-name="Path 21" d="M373.874,43.923,317.482,220.241a13.308,13.308,0,0,1-13.764,9.115L229.764,223.1,56.909,208.33a13.217,13.217,0,0,1-12.154-14.281,14.353,14.353,0,0,1,.851-3.646L59.43,153.942,84.436,87.1l19.385-51.653a13.277,13.277,0,0,1,12.427-8.6H361.264a13.246,13.246,0,0,1,13.248,13.247A12.881,12.881,0,0,1,373.874,43.923Z" transform="translate(18.16 10.879)" fill="#fff"/>
    <path id="Path_22" data-name="Path 22" d="M105.937,162.09l18.078-49.617h75.231l-19.628,50.985Z" transform="translate(43.36 46.121)" fill="#ff5100" opacity="0.18"/>
    <path id="Path_23" data-name="Path 23" d="M319.92,41.1,263.526,217.423a13.307,13.307,0,0,1-13.763,9.116l-73.955-6.259L244.019,35.119l.517-1.428,75.777.79a6.637,6.637,0,0,0,0,.669A13.182,13.182,0,0,1,319.92,41.1Z" transform="translate(72.117 13.696)" fill="#ff5100"/>
    <path id="Path_24" data-name="Path 24" d="M129.426,50.485,110.8,112.255a4.679,4.679,0,0,1-4.558,3.433l-49.465-1.428L81.815,47.416l43.45-2.552a4.221,4.221,0,0,1,4.161,5.621Z" transform="translate(23.127 18.293)" fill="#ff5100" opacity="0.18"/>
    <path id="Path_25" data-name="Path 25" d="M28.03,100.075,47.294,45.536a4.71,4.71,0,0,1,4.1-3.19l81.186-4.8a4.284,4.284,0,0,1,4.194,5.651L118.149,105a4.74,4.74,0,0,1-4.558,3.464L31.737,106a4.284,4.284,0,0,1-3.707-5.925Z" transform="translate(11.16 15.281)" fill="#fff"/>
    <path id="Path_26" data-name="Path 26" d="M357.16,35.058v1.458l-76.416-.79L86.591,33.751V32.293l194.67,1.975,75.777.79Z" transform="translate(35.397 13.121)" fill="#ff5100"/>
    <path id="Path_27" data-name="Path 27" d="M49.8,81.915H39.409l5.469-14.129H55.239Z" transform="translate(15.979 27.729)" fill="#00ac6b"/>
    <path id="Path_28" data-name="Path 28" d="M58.86,86.176H48.468L59.589,57.433H69.98Z" transform="translate(19.707 23.468)" fill="#ff9500"/>
    <path id="Path_29" data-name="Path 29" d="M67.94,82.9H57.548l6.776-17.5H74.685Z" transform="translate(23.444 26.746)" fill="#ff5100"/>
    <path id="Path_30" data-name="Path 30" d="M77.006,88.835H66.614L81.259,50.976H91.651Z" transform="translate(27.175 20.81)" fill="#ff9500"/>
    <path id="Path_31" data-name="Path 31" d="M86.085,91.918H75.694L94.411,43.486H104.8Z" transform="translate(30.912 17.727)" fill="#ff5100"/>
    <path id="Path_32" data-name="Path 32" d="M263.2,72.447a17.806,17.806,0,1,0-.366,1.185l.182-.577Z" transform="translate(93.708 20.425)" fill="#fff"/>
    <path id="Path_33" data-name="Path 33" d="M235.727,152.1a17.866,17.866,0,0,0-34.243-9.844v.577a.667.667,0,0,1-.212.577,17.835,17.835,0,0,0,33.422,12.154c.182-.577.335-1.155.517-1.732S235.514,152.68,235.727,152.1Z" transform="translate(82.329 53.586)" fill="#fff"/>
    <path id="Path_34" data-name="Path 34" d="M248.762,106.8a17.835,17.835,0,1,0-35.67,0v1.246a17.835,17.835,0,0,0,35.67,0Z" transform="translate(87.462 36.446)" fill="#fff"/>
    <path id="Path_35" data-name="Path 35" d="M244.559,66.563l4.194-13.46a14.809,14.809,0,0,0-3.646-.638A14.127,14.127,0,0,0,231.1,62.339a14.813,14.813,0,0,0-.638,3.646,15.171,15.171,0,0,0,.333,3.676A14.042,14.042,0,0,0,247.658,80.3a15.479,15.479,0,0,0,3.433-1.246,15,15,0,0,0,3.039-2.127,14.316,14.316,0,0,0,3.889-6.077Z" transform="translate(94.607 21.419)" fill="#ff5100"/>
    <path id="Path_36" data-name="Path 36" d="M230.037,106.123v-14.1a14.219,14.219,0,0,0-7.018,1.914,13.27,13.27,0,0,0-3.038,2.248,14.038,14.038,0,0,0,6.349,23.548,13.524,13.524,0,0,0,7.292,0,14.221,14.221,0,0,0,3.4-1.368Z" transform="translate(88.589 37.705)" fill="#ff5100"/>
    <path id="Path_37" data-name="Path 37" d="M217.24,147.274l4.374-13.4a14.491,14.491,0,0,0-7.292-.394,14.1,14.1,0,0,0-11.151,13.064,13.411,13.411,0,0,0,.3,3.646,13.771,13.771,0,0,0,1.215,3.464,13.977,13.977,0,0,0,8.081,7.018l4.376-13.43Z" transform="translate(83.371 54.647)" fill="#ff5100"/>
    <path id="Path_38" data-name="Path 38" d="M90.81,111.062a2.792,2.792,0,0,1-.942,1.458,4.481,4.481,0,0,1-2.157.577,4.724,4.724,0,0,0-2.248.759,1.276,1.276,0,0,0,0,1.155l.881,4.922a1.976,1.976,0,0,1,0,1.186,1.72,1.72,0,0,1-.479.514,1.689,1.689,0,0,1-.645.275c-1.762.7-3.95,1.307-5.348,0a5.439,5.439,0,0,1-1.306-2.642A54.025,54.025,0,0,1,75.83,102.16,12.154,12.154,0,0,1,79.841,92.8,11.85,11.85,0,0,1,88.5,90.8a4.194,4.194,0,0,1,3.221,2.218c.395.881,0,1.732,0,2.674a26.573,26.573,0,0,0,.273,4.132,18.945,18.945,0,0,0,.486,1.884,6.357,6.357,0,0,1,.486,1.641,6.742,6.742,0,0,1-.881,3.038,18.941,18.941,0,0,0-1.124,3.434A6.374,6.374,0,0,1,90.81,111.062Z" transform="translate(30.967 37.139)" fill="#fdb9a9"/>
    <path id="Path_39" data-name="Path 39" d="M89.234,139.975s6.077,6.5,11.181,6.5,27.618-21.268,27.618-21.268a9.94,9.94,0,0,0,5.166-5.834c.212-.881.151-1.793.3-2.674a11.841,11.841,0,0,1,2.339-4.861,1.822,1.822,0,0,0,.517-1.489c-.182-.668-.973-.881-1.64-1a8.9,8.9,0,0,0-6.351.517,8.062,8.062,0,0,0-2.765,4.5,5.432,5.432,0,0,0-2.431-1.945,1.458,1.458,0,0,0-.638,1.762,17.767,17.767,0,0,0,.79,1.884,6.079,6.079,0,0,1-2.552,6.077,27,27,0,0,1-3.738,2.431l-13.794,8.052c-1.4.82-3.038,1.671-4.558.912-.7-.364-1.185-1.064-1.945-1.4a3.464,3.464,0,0,0-3.281,1.033A20.649,20.649,0,0,0,89.234,139.975Z" transform="translate(36.485 44.687)" fill="#fdb9a9"/>
    <path id="Path_40" data-name="Path 40" d="M65.709,199.552a12.762,12.762,0,0,1-5.621,9.116c-5.652,2.642-12.913,3.312-18.99,4.619-3.676.82-7.353,1.64-10.969,2.613-3.038.82-6.289.728-8.356,3.4-1.246,1.58-2.066,3.828-4.011,4.284a3.62,3.62,0,0,1-3.616-1.642,8.6,8.6,0,0,1-1.215-4.041,4.8,4.8,0,0,1,0-1.609,3.775,3.775,0,0,1,.851-1.52,16.889,16.889,0,0,1,7.353-3.919,46.7,46.7,0,0,0,6.836-3.039,35.6,35.6,0,0,1,5.591-2.188l11.09-4.041c2.613-.942,6.533-1.306,7.535-4.284a18.215,18.215,0,0,0,.577-4.466,19.02,19.02,0,0,1,2.674-8.447,2.487,2.487,0,0,1,.881-1.063,3.026,3.026,0,0,1,1.489-.364,9.111,9.111,0,0,1,4.193.486,7.324,7.324,0,0,1,3.737,4.223,15.193,15.193,0,0,1,.668,5.713A35.957,35.957,0,0,1,65.709,199.552Z" transform="translate(5.053 75.107)" fill="#fdb9a9"/>
    <path id="Path_41" data-name="Path 41" d="M16.22,204.839c-.182.79-.79,1.429-1,2.219a5.221,5.221,0,0,0,0,1.944l.577,3.039a2.282,2.282,0,0,0,1.667,2.1,2.3,2.3,0,0,0,.946.058.854.854,0,0,1,.638.364.761.761,0,0,1,0,.517l-.851,3.859a18.75,18.75,0,0,1-1.671,4.648,1.419,1.419,0,0,1-.729,0c-1.945,0-2.7-4.922-3.4-6.776a13.337,13.337,0,0,1-.456-5.8,18.99,18.99,0,0,1,.334-3.039,8.747,8.747,0,0,1,.577-3.038,1.4,1.4,0,0,1,1.307-.759C14.762,204.2,16.433,203.959,16.22,204.839Z" transform="translate(4.616 83.858)" fill="#ff5100"/>
    <path id="Path_42" data-name="Path 42" d="M81.9,198.058a12.608,12.608,0,0,1,1.7,10.7c-2.583,5.651-7.687,10.907-11.424,15.829-2.309,3.039-4.558,6.077-6.715,9.116-1.762,2.582-4.284,4.617-4.132,7.991,0,2,.911,4.253-.273,5.864a3.649,3.649,0,0,1-3.828,1.094,8.534,8.534,0,0,1-3.525-2.28,4.89,4.89,0,0,1-1-1.245,3.771,3.771,0,0,1-.334-1.732,16.565,16.565,0,0,1,3.038-7.748,44.759,44.759,0,0,0,3.038-6.836,33.259,33.259,0,0,1,2.856-5.317l5.8-10.269c1.4-2.4,4.163-5.227,3.038-8.143a17.864,17.864,0,0,0-2.461-3.767,19.448,19.448,0,0,1-3.464-8.143,3.615,3.615,0,0,1,0-1.4,3.037,3.037,0,0,1,.881-1.245,9.307,9.307,0,0,1,3.555-2.34,7.149,7.149,0,0,1,5.56.79,14.72,14.72,0,0,1,4.223,3.889A36.637,36.637,0,0,1,81.9,198.058Z" transform="translate(21.309 77.18)" fill="#fdb9a9"/>
    <path id="Path_43" data-name="Path 43" d="M53.578,225.682c.365.73.334,1.611.7,2.339a4.487,4.487,0,0,0,1.337,1.4l2.34,1.915a3.582,3.582,0,0,0,.911.577,3.284,3.284,0,0,0,2.492-.608.566.566,0,0,1,.255-.178.571.571,0,0,1,.587.124.571.571,0,0,1,.161.267l1.853,3.525a17.791,17.791,0,0,1,1.762,4.588,1.5,1.5,0,0,1-.486.577c-1.519,1.245-5.256-2.006-6.958-3.039a13.486,13.486,0,0,1-4.223-3.919c-.608-.851-1.185-1.732-1.762-2.583a9.1,9.1,0,0,1-1.458-2.583,1.488,1.488,0,0,1,.517-1.488C52,226.138,53.122,224.891,53.578,225.682Z" transform="translate(20.769 92.609)" fill="#ff5100"/>
    <path id="Path_44" data-name="Path 44" d="M120.685,132.052a1.94,1.94,0,0,1-.7,1c-2.309,2.219-4.649,4.376-6.928,6.593a18.192,18.192,0,0,1-2.37,1.914c-.76.456-1.58.759-2.34,1.215a5.648,5.648,0,0,0-.729.548,14.217,14.217,0,0,0-3.646,5.347c-.577,1.246-1.124,2.552-1.58,3.859a59.368,59.368,0,0,0-2.7,10.451c-3.494,20.3,1.063,40.988,3.433,61.346.3,2.249.517,4.5.7,6.746,0,.941.182,1.914.243,2.885a3.859,3.859,0,0,1-.4,2.522,3.77,3.77,0,0,1-1.853,1.186c-10.27,4.161-21.846,7.443-32.268,3.736C62.8,239,57.4,233.959,51.5,229.888s-13.247-7.231-20.145-5.226a20.993,20.993,0,0,1,5.2-13.49,36.792,36.792,0,0,1,3.676-4.163l2.735-2.7c9.115-8.9,16.924-16.589,21.816-29.077,1.975-5.075,2.37-11.03,5.712-15.465,3.038-3.8,5.378-4.194,6.077-9.3a114.09,114.09,0,0,1,4.345-18.808,45.562,45.562,0,0,1,8.477-15.191,22.32,22.32,0,0,1,5.834-5.227,11.206,11.206,0,0,1,7.566-1.549,7.537,7.537,0,0,1,5.8,4.77c2.34,6.9,8.416,9.905,11.728,16.438A1.733,1.733,0,0,1,120.685,132.052Z" transform="translate(12.664 44.923)" fill="#ff5100"/>
    <path id="Path_45" data-name="Path 45" d="M108.563,93.633a6.594,6.594,0,0,1-4.132,4.71c-4.71,1.853-11.212,1.094-9.905,7.809a22.912,22.912,0,0,1-1.155,14.8,14.619,14.619,0,0,0-2.674,5.8,14.078,14.078,0,0,0,.365,2.765,15.192,15.192,0,0,1-12.154,17.5,11.74,11.74,0,0,1-1.762.213,11.044,11.044,0,0,0-5.2.881,9.417,9.417,0,0,0-3.038,4.77,10.538,10.538,0,0,1-3.433,4.983c-3.251,2.188-7.6.851-11.242-.638a28.862,28.862,0,0,1-7.687-4.132,10.6,10.6,0,0,1-4.132-7.445,18.046,18.046,0,0,0-.091-5.711,27.067,27.067,0,0,0-2.157-3.039,10.907,10.907,0,0,1,.942-10.209,4.438,4.438,0,0,0,.638-1.732,5.552,5.552,0,0,0-.425-1.732,9.572,9.572,0,0,1,5.2-10.179A47.9,47.9,0,0,1,58.247,109.4a19.719,19.719,0,0,0,13.4-11.667c2.34-4.983,4.315-10.422,9.662-12.913a27.1,27.1,0,0,1,24.945,2.887,5.469,5.469,0,0,1,2.309,5.925Z" transform="translate(15.942 33.999)" fill="#473f47"/>
    <path id="Path_46" data-name="Path 46" d="M94.142,135.1c-.76.456-1.58.759-2.34,1.215a4.216,4.216,0,0,0-.729.546,17.23,17.23,0,0,0-5.226,9.116,61.834,61.834,0,0,0-2.734,10.482,118.283,118.283,0,0,0-.82,27.922,32.577,32.577,0,0,1-.3,10.179A32.176,32.176,0,0,1,74.6,177.785c-.425-3.372-.3-6.836-1-10.177-.547-2.4-1.519-4.71-1.914-7.141a1.512,1.512,0,0,0,0-.364c-.638-4.376,1.063-5.014,3.525-7.535a23.816,23.816,0,0,0,5.226-9.116q3.038-9.115,6.35-17.957C86.333,127.106,92.258,132.088,94.142,135.1Z" transform="translate(29.208 51.48)" fill="url(#linear-gradient)"/>
    <path id="Path_47" data-name="Path 47" d="M102.3,203.5a50.951,50.951,0,0,1-32.116-.82,31.493,31.493,0,0,1-10.6-6.077c-1.185-1.094-2.248-2.309-3.464-3.343a27.338,27.338,0,0,0-6.077-3.767c-4.709-2.249-9.632-3.677-14.4-5.621l-.516-.213a40.11,40.11,0,0,1,3.676-4.163l2.765-2.7h.608a33.779,33.779,0,0,1,8.842,2.46,85.141,85.141,0,0,1,12.731,8.932,83.234,83.234,0,0,0,12.579,6.959,37.558,37.558,0,0,0,8.72,3.19,39.148,39.148,0,0,0,9.115.182,14.913,14.913,0,0,0,7.444-1.793C101.876,199,102.089,201.218,102.3,203.5Z" transform="translate(14.214 72.591)" fill="#fff" opacity="0.38"/>
    <path id="Path_48" data-name="Path 48" d="M121.177,116.531l18.078-49.648h75.261l-19.659,50.984Z" transform="translate(49.632 27.357)" fill="#ff5100" opacity="0.18"/>
    <path id="Path_49" data-name="Path 49" d="M192.511.414l31.144,14.4L218.4,33.167Z" transform="translate(78.991 0)" fill="#005876"/>
    <path id="Path_50" data-name="Path 50" d="M192.511.414h48.523L226.267,9.438Z" transform="translate(78.991 0)" fill="#005876"/>
    <path id="Path_51" data-name="Path 51" d="M231.888,22.928l-8.234-8.112L192.511.414l33.756,9.024Z" transform="translate(78.991 0)" fill="#0c5da5"/>
    <path id="Path_52" data-name="Path 52" d="M231.888,22.928l-8.234-8.112L192.511.414l33.756,9.024Z" transform="translate(78.991 0)" fill="#00445b"/>
    <path id="Path_53" data-name="Path 53" d="M231.888,22.928l-8.234-8.112L192.511.414Z" transform="translate(78.991 0)" fill="#006e92"/>
  </g>
</svg>
