<svg width="180" height="320" viewBox="0 0 180 320" fill="none" xmlns="http://www.w3.org/2000/svg">
<g clip-path="url(#clip0_12980_11703)">
<mask id="mask0_12980_11703" style="mask-type:luminance" maskUnits="userSpaceOnUse" x="0" y="0" width="180" height="320">
<path d="M0 320L0 0L180 0L180 320H0Z" fill="white"/>
</mask>
<g mask="url(#mask0_12980_11703)">
<path d="M67.9783 292.259C42.0683 295.961 18.085 262.024 0 225.224L0 261.121C9.23833 274.553 19.7017 286.666 30.4133 293.043C49.5167 304.413 67.5617 301.246 87.7767 284.923C81.5067 288.696 74.93 291.266 67.9783 292.259Z" fill="#FFDD4D"/>
<path d="M144.158 218.861C156.208 203.384 168.067 190.847 180 181.307V170.301C167.853 182.356 156.23 200.352 144.158 218.861Z" fill="#FFDD4D"/>
<path d="M0 319.999H180V181.308C168.067 190.848 156.208 203.384 144.158 218.861C127.162 244.916 109.275 271.986 87.7767 284.923C67.5617 301.246 49.5167 304.413 30.4133 293.043C19.7017 286.666 9.23833 274.553 0 261.121L0 319.999Z" fill="#FFA440"/>
<path d="M87.7754 284.923C109.274 271.986 127.16 244.916 144.157 218.861C141.47 222.311 138.774 225.908 136.065 229.651C118.037 254.563 102.342 273.159 87.7754 284.923Z" fill="#FFA440"/>
<path d="M-5.51172 278.857C0.349614 283.526 11.7781 290.49 17.9869 293.042C103.439 328.164 134.33 205.55 188.033 197.233" stroke="#FFFFBD" stroke-width="3" stroke-miterlimit="10"/>
</g>
</g>
<defs>
<clipPath id="clip0_12980_11703">
<rect width="320" height="180" fill="white" transform="matrix(0 1 1 0 0 0)"/>
</clipPath>
</defs>
</svg>
