
        <svg width="1440" height="810" viewBox="0 0 1440 810" fill="none" xmlns="http://www.w3.org/2000/svg">
          
            <g clip-path="url(#clip0_12642_14115)">
           
              <mask id="mask0_12642_14115" style="mask-type:luminance" maskUnits="userSpaceOnUse" x="0" y="0" width="1440" height="810">
              
                <path d="M1440 0H0V810H1440V0Z" fill="white"/>
               
              </mask>
             
          
              <g mask="url(#mask0_12642_14115)">
                <!-- Replace the white rectangle with an image -->
            
           <path d="M1440 0H0V810H1440V0Z" fill="white"/>
               
               
               
                <path id="curve2" d="M984.875 648.712C915.23 702.937 858.815 756.299 815.885 809.999H766.355C820.603 755.339 901.588 703.033 984.875 648.712Z" fill="#FFDD4D"/>
           
                <path id="curve3" d="M1440 -0.000854492V809.999H815.887C858.817 756.299 915.232 702.937 984.877 648.712C1102.12 572.227 1223.94 491.737 1282.15 394.994C1355.61 304.027 1369.86 222.824 1318.69 136.859C1290 88.6567 1235.49 41.5716 1175.05 -0.000854492H1440Z" fill="#FFA440"/>
                
              </g>
            </g>
          
            <defs>
              <clipPath id="clip0_12642_14115">
                <rect width="1440" height="810" fill="white"/>
              </clipPath>
            </defs>
           
         
          </svg>