<svg width="432" height="768" viewBox="0 0 432 768" fill="none" xmlns="http://www.w3.org/2000/svg">
<g clip-path="url(#clip0_12980_11691)">
<mask id="mask0_12980_11691" style="mask-type:luminance" maskUnits="userSpaceOnUse" x="0" y="0" width="432" height="768">
<path d="M0 768L0 0L432 0L432 768H0Z" fill="white"/>
</mask>
<g mask="url(#mask0_12980_11691)">
<path d="M163.148 701.425C100.964 710.309 43.404 628.861 0 540.541L0 626.693C22.172 658.929 47.284 688.001 72.992 703.305C118.84 730.593 162.148 722.993 210.664 683.817C195.616 692.873 179.832 699.041 163.148 701.425Z" fill="#FFDD4D"/>
<path d="M345.979 525.268C374.899 488.124 403.359 458.036 431.999 435.14V408.724C402.847 437.656 374.95 480.848 345.979 525.268Z" fill="#FFDD4D"/>
<path d="M0 768.001H432V435.141C403.36 458.037 374.9 488.124 345.98 525.268C305.188 587.8 262.26 652.768 210.664 683.816C162.148 722.992 118.84 730.593 72.992 703.305C47.284 688.001 22.172 658.929 0 626.693L0 768.001Z" fill="#FFA440"/>
<path d="M210.664 683.817C262.26 652.769 305.188 587.801 345.98 525.269C339.532 533.549 333.06 542.181 326.56 551.165C283.292 610.953 245.624 655.585 210.664 683.817Z" fill="#FFA440"/>
<path d="M-13.2266 669.259C0.840637 680.465 28.269 697.178 43.1702 703.303C248.255 787.596 322.393 493.323 451.28 473.362" stroke="#FFFFBD" stroke-width="5" stroke-miterlimit="10"/>
</g>
</g>
<defs>
<clipPath id="clip0_12980_11691">
<rect width="768" height="432" fill="white" transform="matrix(0 1 1 0 0 0)"/>
</clipPath>
</defs>
</svg>
